<mxfile host="app.diagrams.net" modified="2023-10-20T06:34:09.464Z" agent="Mozilla/5.0 (Windows NT 10.0; Win64; x64) AppleWebKit/537.36 (KHTML, like Gecko) Chrome/118.0.0.0 Safari/537.36" etag="OtjZYtNucLE7eAkQU5QI" version="22.0.5" type="github">
  <diagram name="Page-1" id="55Gc6X_RppKq9RraUx5e">
    <mxGraphModel dx="838" dy="518" grid="1" gridSize="42" guides="1" tooltips="1" connect="1" arrows="1" fold="1" page="1" pageScale="1" pageWidth="850" pageHeight="1100" math="0" shadow="0">
      <root>
        <mxCell id="0" />
        <mxCell id="1" parent="0" />
        <mxCell id="d7t7244EAwN4yVSRLg2A-308" value="User" style="rounded=0;whiteSpace=wrap;html=1;" vertex="1" parent="1">
          <mxGeometry x="168" y="168" width="120" height="60" as="geometry" />
        </mxCell>
        <mxCell id="d7t7244EAwN4yVSRLg2A-313" style="edgeStyle=orthogonalEdgeStyle;orthogonalLoop=1;jettySize=auto;html=1;exitX=1;exitY=1;exitDx=0;exitDy=0;entryX=0;entryY=0;entryDx=0;entryDy=0;strokeColor=default;rounded=1;" edge="1" parent="1" source="d7t7244EAwN4yVSRLg2A-309" target="d7t7244EAwN4yVSRLg2A-308">
          <mxGeometry relative="1" as="geometry">
            <Array as="points">
              <mxPoint x="126" y="78" />
              <mxPoint x="126" y="168" />
            </Array>
          </mxGeometry>
        </mxCell>
        <mxCell id="d7t7244EAwN4yVSRLg2A-309" value="id" style="ellipse;whiteSpace=wrap;html=1;" vertex="1" parent="1">
          <mxGeometry x="48" y="42" width="78" height="42" as="geometry" />
        </mxCell>
        <mxCell id="d7t7244EAwN4yVSRLg2A-314" value="name" style="ellipse;whiteSpace=wrap;html=1;" vertex="1" parent="1">
          <mxGeometry x="168" y="42" width="78" height="42" as="geometry" />
        </mxCell>
        <mxCell id="d7t7244EAwN4yVSRLg2A-315" style="edgeStyle=orthogonalEdgeStyle;orthogonalLoop=1;jettySize=auto;html=1;strokeColor=default;rounded=1;" edge="1" parent="1">
          <mxGeometry relative="1" as="geometry">
            <mxPoint x="210" y="84" as="sourcePoint" />
            <mxPoint x="210" y="168" as="targetPoint" />
            <Array as="points">
              <mxPoint x="210" y="78" />
              <mxPoint x="210" y="168" />
            </Array>
          </mxGeometry>
        </mxCell>
        <mxCell id="d7t7244EAwN4yVSRLg2A-316" value="email" style="ellipse;whiteSpace=wrap;html=1;" vertex="1" parent="1">
          <mxGeometry x="288" y="42" width="78" height="42" as="geometry" />
        </mxCell>
        <mxCell id="d7t7244EAwN4yVSRLg2A-317" style="edgeStyle=orthogonalEdgeStyle;orthogonalLoop=1;jettySize=auto;html=1;strokeColor=default;rounded=1;entryX=0.7;entryY=0;entryDx=0;entryDy=0;entryPerimeter=0;" edge="1" parent="1" target="d7t7244EAwN4yVSRLg2A-308">
          <mxGeometry relative="1" as="geometry">
            <mxPoint x="330" y="84" as="sourcePoint" />
            <mxPoint x="330" y="168" as="targetPoint" />
            <Array as="points">
              <mxPoint x="294" y="84" />
              <mxPoint x="294" y="168" />
            </Array>
          </mxGeometry>
        </mxCell>
        <mxCell id="d7t7244EAwN4yVSRLg2A-318" value="password" style="ellipse;whiteSpace=wrap;html=1;" vertex="1" parent="1">
          <mxGeometry x="372" y="84" width="78" height="42" as="geometry" />
        </mxCell>
        <mxCell id="d7t7244EAwN4yVSRLg2A-319" style="edgeStyle=orthogonalEdgeStyle;orthogonalLoop=1;jettySize=auto;html=1;strokeColor=default;rounded=1;" edge="1" parent="1" target="d7t7244EAwN4yVSRLg2A-308">
          <mxGeometry relative="1" as="geometry">
            <mxPoint x="414" y="126" as="sourcePoint" />
            <mxPoint x="294" y="210" as="targetPoint" />
            <Array as="points">
              <mxPoint x="336" y="126" />
              <mxPoint x="336" y="210" />
            </Array>
          </mxGeometry>
        </mxCell>
        <mxCell id="d7t7244EAwN4yVSRLg2A-320" value="about" style="ellipse;whiteSpace=wrap;html=1;" vertex="1" parent="1">
          <mxGeometry x="27" y="126" width="78" height="42" as="geometry" />
        </mxCell>
        <mxCell id="d7t7244EAwN4yVSRLg2A-321" style="edgeStyle=orthogonalEdgeStyle;orthogonalLoop=1;jettySize=auto;html=1;exitX=1;exitY=1;exitDx=0;exitDy=0;entryX=0;entryY=0.75;entryDx=0;entryDy=0;strokeColor=default;rounded=1;" edge="1" source="d7t7244EAwN4yVSRLg2A-320" parent="1" target="d7t7244EAwN4yVSRLg2A-308">
          <mxGeometry relative="1" as="geometry">
            <mxPoint x="147" y="252" as="targetPoint" />
            <Array as="points">
              <mxPoint x="105" y="162" />
              <mxPoint x="105" y="213" />
            </Array>
          </mxGeometry>
        </mxCell>
      </root>
    </mxGraphModel>
  </diagram>
</mxfile>
